<svg width="151" height="48" viewBox="0 0 151 48" fill="none" xmlns="http://www.w3.org/2000/svg">
<path fill-rule="evenodd" clip-rule="evenodd" d="M122.402 3.20871C121.66 2.33641 120.547 1.58322 119.062 0.949167C117.578 0.315111 115.526 -0.00127705 112.908 3.87376e-06C110.287 3.87376e-06 108.238 0.316392 106.76 0.949167C105.282 1.58194 104.155 2.33512 103.38 3.20871C102.611 4.0823 102.142 4.96614 101.972 5.86022C101.823 6.5389 101.736 7.22951 101.71 7.92379V48H107.282V32.1524C107.257 31.5773 107.43 31.011 107.772 30.5481C108.077 30.1548 108.442 29.8124 108.854 29.5336C109.317 29.235 109.825 29.0138 110.358 28.8784C111.058 28.6222 111.8 28.3603 112.585 28.0925C113.241 27.8761 113.951 27.6359 114.714 27.372C115.478 27.1082 116.187 26.868 116.843 26.6515C116.961 26.5822 117.092 26.5377 117.227 26.5208C119.716 25.7792 121.474 24.7096 122.5 23.3121C123.526 21.9147 124.038 20.4307 124.037 18.8603V7.92379C124.011 7.22951 123.924 6.5389 123.775 5.86022C123.601 4.96742 123.143 4.08358 122.402 3.20871ZM118.472 9.62613V17.8689C118.452 18.5269 118.296 19.1737 118.015 19.7691C117.71 20.4659 116.99 21.0116 115.854 21.4061C115.635 21.4945 115.396 21.581 115.133 21.6674L114.347 21.9287C113.825 22.1055 113.235 22.313 112.58 22.5513C111.924 22.7895 111.269 23.022 110.616 23.2487C109.96 23.4678 109.338 23.6862 108.748 23.9039C108.323 24.0623 107.948 24.1926 107.625 24.3049C107.501 24.3479 107.385 24.3883 107.277 24.4265V9.0305C107.281 8.60032 107.336 8.17212 107.44 7.7547C107.573 7.24969 107.832 6.78682 108.193 6.40974C108.659 5.92555 109.23 5.55593 109.863 5.32992C110.584 5.04556 111.533 4.90337 112.71 4.90337C113.977 4.90337 114.981 5.04556 115.723 5.32992C116.359 5.55354 116.947 5.89801 117.452 6.34441C117.835 6.68779 118.118 7.12872 118.271 7.62021C118.393 8.03522 118.458 8.4652 118.463 8.89793L118.472 9.62613Z" fill="url(#paint0_linear_310_9)"/>
<path d="M24.5783 40.9658C19.4963 37.9127 5.28765 28.2847 5.28765 16.0166C5.28765 10.608 9.67224 5.86214 14.6678 5.86214C16.3306 5.86322 17.9633 6.30628 19.3985 7.14593C20.8337 7.98559 22.0199 9.19167 22.8356 10.6406L25.1413 14.7447L27.447 10.6406C28.2628 9.1918 29.4491 7.98583 30.8843 7.1462C32.3195 6.30656 33.952 5.86342 35.6148 5.86214V0.576415C33.6641 0.577997 31.7334 0.968438 29.9354 1.72491C28.1374 2.48138 26.5083 3.58871 25.1432 4.98215C23.7775 3.58859 22.1477 2.48123 20.349 1.72477C18.5504 0.968303 16.6191 0.577915 14.6678 0.576415C6.72484 0.576415 0 7.64518 0 16.0166C0 34.0969 22.949 46.1824 23.9251 46.68L25.8676 47.6772L27.2126 45.9652C27.2491 45.9191 30.9496 41.2905 38.6986 36.1278C45.8481 31.3666 56.6385 24.6187 73.9733 22.0959L76.3404 16.7698C46.6685 20.2341 29.278 35.9587 24.5783 40.9658Z" fill="url(#paint1_linear_310_9)"/>
<path d="M136.972 6.24835C136.295 7.01463 135.932 8.00838 135.957 9.03051V21.6751H147.804V26.8494H135.951V39.5536C135.934 40.5548 136.297 41.5254 136.966 42.2704C137.642 43.039 138.548 43.4233 139.685 43.4233H150.681V47.9923H137.848C136.72 48.0205 135.602 47.785 134.581 47.3045C133.706 46.8772 132.926 46.2757 132.291 45.5368C131.69 44.8349 131.225 44.0269 130.921 43.1543C130.625 42.3352 130.47 41.4718 130.462 40.6008V7.9238C130.469 7.05636 130.622 6.19631 130.915 5.37989C131.222 4.50002 131.692 3.68588 132.301 2.98008C132.936 2.24055 133.715 1.63841 134.591 1.21048C135.612 0.73151 136.73 0.496671 137.857 0.524551H150.69V5.09552H139.69C138.554 5.09552 137.648 5.4798 136.972 6.24835Z" fill="url(#paint2_linear_310_9)"/>
<path d="M91.9728 45.262C91.9318 45.2151 91.8932 45.1648 91.8546 45.1145C91.6937 44.9048 91.5327 44.6949 91.2042 44.7336L90.8199 44.5914C90.8179 44.5538 90.8121 44.5165 90.8026 44.48C90.4479 44.2168 90.0368 44.0398 89.6018 43.9632L88.7314 43.5212C88.7113 43.5281 88.6898 43.5301 88.6688 43.5271C88.6477 43.5241 88.6277 43.5162 88.6103 43.5039C88.2895 42.6893 88.3894 42.3607 89.131 41.792C89.1615 41.7692 89.1952 41.7511 89.2309 41.7382C89.3676 41.195 89.3293 40.6477 89.2911 40.0997C89.2841 40.0004 89.2772 39.9009 89.2713 39.8014C89.2713 39.7433 89.2631 39.686 89.2549 39.6284C89.2511 39.6023 89.2474 39.5761 89.2444 39.5497C89.2324 39.5342 89.2164 39.5222 89.1981 39.5151C89.1798 39.508 89.16 39.506 89.1406 39.5094C89.1401 39.5061 89.1399 39.5027 89.14 39.4994C89.14 39.4981 89.1401 39.4969 89.1402 39.4957C89.1403 39.4945 89.1404 39.4933 89.1406 39.4921C89.1433 39.4865 89.1451 39.4806 89.146 39.4746C89.1476 39.4646 89.1469 39.4543 89.1437 39.4446C89.1388 39.4289 89.128 39.4157 89.1137 39.4076H89.1522C89.2301 39.1855 89.2193 38.9512 89.2086 38.717C89.1944 38.4082 89.1803 38.0994 89.3693 37.8186C89.3698 37.7513 89.3851 37.685 89.4139 37.6243C89.4428 37.5635 89.4846 37.5098 89.5364 37.467C89.574 37.4344 89.6023 37.3927 89.6189 37.3459C89.6354 37.2991 89.6394 37.2487 89.6306 37.1999L89.6709 37.0769C89.7291 36.9949 89.7551 36.8944 89.7439 36.7945C89.7446 36.7836 89.7446 36.7727 89.7439 36.7618C89.8665 36.6478 89.8602 36.4966 89.8539 36.3442C89.8488 36.2218 89.8437 36.0985 89.9053 35.9933C89.8943 35.9492 89.8975 35.9029 89.9144 35.8608C89.9313 35.8187 89.9611 35.783 89.9995 35.7589C90.1457 35.5095 90.2383 35.2324 90.2714 34.9452C90.3045 34.6581 90.2773 34.3672 90.1916 34.0911C90.2465 34.0467 90.2553 33.981 90.264 33.9152C90.2697 33.8727 90.2754 33.8302 90.2935 33.7933C90.3101 33.2295 90.3844 32.6702 90.4588 32.1109C90.5653 31.3091 90.672 30.5071 90.6086 29.6911C90.6086 29.6616 90.6208 29.6316 90.6337 29.6002C90.6468 29.5683 90.6604 29.5348 90.6624 29.499C90.6713 29.3339 90.682 29.1688 90.6928 29.0037C90.7515 28.1003 90.8103 27.1972 90.5682 26.3037C90.5125 25.7734 90.4683 25.247 90.697 24.7416C90.697 24.6453 90.7022 24.549 90.7072 24.4558C90.709 24.4225 90.7108 24.3897 90.7123 24.3574C90.6447 24.1397 90.7363 23.9615 90.828 23.7832C90.903 23.6374 90.9781 23.4914 90.966 23.3237C91.015 23.278 91.053 23.2217 91.077 23.1591C91.1009 23.0965 91.1103 23.0292 91.1043 22.9624C91.1925 22.8773 91.2525 22.7673 91.2762 22.647C91.2999 22.5268 91.2862 22.4022 91.2369 22.29L91.2791 18.7354C91.2791 18.6653 91.28 18.5951 91.2808 18.525C91.286 18.0794 91.2912 17.6336 91.087 17.2137C91.0998 16.4364 90.9177 15.6924 90.7356 14.9484C90.6985 14.7967 90.6613 14.645 90.6259 14.493C90.627 14.4354 90.6117 14.3788 90.5817 14.3297L90.5682 14.3124V13.8532C90.5279 13.8301 90.524 13.7994 90.5529 13.7629L90.4529 13.6975C90.4692 13.234 90.3511 12.7755 90.1129 12.3775C90.1204 12.3408 90.1255 12.3035 90.1282 12.2661C90.1239 12.0414 90.0425 11.825 89.8977 11.6532L88.6065 8.79993V7.76238C88.6147 7.69608 88.6234 7.63031 88.632 7.5648L88.6322 7.56366C88.6398 7.50616 88.6474 7.44886 88.6545 7.39156L88.8467 7.28204C88.9484 7.16809 89.0189 7.03422 89.0895 6.90009C89.1523 6.78094 89.2152 6.6615 89.3001 6.55575C89.3879 6.38691 89.5209 6.24586 89.6844 6.14842C89.7535 6.10166 89.8178 6.04825 89.8765 5.98895C89.9342 5.95052 89.9899 5.90825 90.0437 5.86406L90.2935 5.7872L90.4376 5.55856C90.7815 5.39908 90.891 5.03402 90.6835 4.82843C90.4876 4.63636 90.5545 4.49878 90.6198 4.36462C90.6519 4.29881 90.6835 4.23382 90.6835 4.16363C90.5315 3.95514 90.4982 3.71557 90.4648 3.47592C90.4505 3.37324 90.4362 3.27055 90.4126 3.17028C90.378 3.02425 90.3396 2.88399 90.1782 2.82635C90.1689 2.79519 90.1644 2.7628 90.1647 2.73028C90.1067 2.63595 90.0205 2.63601 89.9324 2.63607C89.8806 2.63611 89.8282 2.63614 89.7805 2.61692H89.7555L89.6575 2.60539L89.5883 2.59578C89.3232 2.55351 89.108 2.45168 89.1176 2.08277L89.0081 2.05588L89.0078 2.0543C88.9829 1.8819 88.958 1.7095 88.9312 1.5371L88.9328 1.52135C88.9419 1.43207 88.9513 1.33994 88.9658 1.25466C88.9426 1.19676 88.9432 1.13287 88.9437 1.06914C88.9447 0.963674 88.9456 0.858651 88.839 0.781998C88.7531 0.725965 88.6932 0.639065 88.6332 0.552193C88.5349 0.409693 88.4366 0.267272 88.2241 0.261303C88.1474 0.225247 88.06 0.226254 87.972 0.227266C87.8396 0.22879 87.7059 0.230329 87.6055 0.105671C87.0725 -0.0172734 86.5186 -0.0172734 85.9857 0.105671C85.9593 0.105671 85.9322 0.103562 85.9051 0.101456C85.7882 0.0923713 85.6721 0.0833526 85.6207 0.244011C85.0157 0.140544 84.5762 0.442273 84.1366 0.744054C83.9885 0.845757 83.8403 0.947494 83.6858 1.0337C83.5288 1.06859 83.4466 1.18266 83.3643 1.29687L83.3642 1.29704C83.3378 1.33373 83.3113 1.37043 83.2823 1.40453C83.1031 1.53216 82.9687 1.713 82.8981 1.92138C82.7056 2.05321 82.6036 2.24925 82.5014 2.4456C82.4547 2.53542 82.4079 2.62531 82.3524 2.70915C82.3247 2.75882 82.3164 2.81705 82.3293 2.87246C82.3889 3.0012 82.4523 3.12416 82.6195 3.12993L82.3812 3.4873C82.352 3.53391 82.323 3.58077 82.2941 3.62752C82.2432 3.70987 82.1925 3.79192 82.141 3.87158C82.141 4.12713 82.141 4.38459 82.1257 4.64013L82.1372 4.65551C82.0846 4.67828 82.054 4.62757 82.0234 4.57676C81.9868 4.51612 81.9501 4.45532 81.8759 4.51909V4.90336C81.9041 4.91634 81.9354 4.92101 81.9662 4.91681L82.9019 6.08117C82.9532 6.13749 83.0036 6.19522 83.0539 6.25295C83.3711 6.61662 83.6881 6.98004 84.2469 6.98999C84.3371 7.12605 84.4751 7.16649 84.6128 7.20681C84.6539 7.21887 84.6951 7.23094 84.7349 7.24553C84.7444 7.24943 84.7539 7.25332 84.7636 7.25723L84.784 7.26547C85.0366 7.36756 85.3312 7.48663 85.2249 7.88151C84.6677 8.33303 84.1527 8.81722 83.9337 9.53198C83.8989 9.58989 83.8816 9.6566 83.8837 9.72411C83.8574 9.83936 83.8289 9.95461 83.8007 10.0691L83.8004 10.0704L83.8002 10.0713C83.7896 10.1145 83.7789 10.1576 83.7685 10.2006C83.4796 10.6047 83.406 11.0724 83.3325 11.5396L83.3324 11.54L83.3323 11.5404L83.3323 11.5408C83.3164 11.6419 83.3004 11.743 83.2823 11.8434C83.1791 12.0038 83.1832 12.1774 83.1874 12.3516C83.1889 12.4174 83.1905 12.4832 83.1863 12.5485C83.0597 12.7748 83.0035 13.0337 83.0249 13.2921C82.9038 13.6141 82.9048 13.9467 82.9058 14.2794C82.9063 14.4749 82.9069 14.6704 82.8827 14.8638C82.6726 15.7548 82.6755 16.658 82.6784 17.5628C82.6791 17.7916 82.6798 18.0205 82.6771 18.2493C82.6749 18.684 82.683 19.1188 82.691 19.5531C82.7186 21.0383 82.746 22.5185 82.3639 23.9769C82.2717 24.2219 82.2413 24.4859 82.2755 24.7455C82.2803 24.7634 82.2836 24.7849 82.2869 24.8065C82.2943 24.8543 82.3017 24.9027 82.3255 24.9146C83.0153 25.2258 83.1517 25.491 83.0306 26.3037C83.0009 26.5418 83.0818 26.749 83.1627 26.9562C83.2124 27.0834 83.2621 27.2106 83.2862 27.3451C83.2602 27.3997 83.2293 27.4517 83.194 27.5007L83.19 27.5179C83.1125 27.858 83.0355 28.1954 83.3246 28.4864C83.4999 28.8179 83.4273 29.1436 83.3548 29.469C83.3248 29.6038 83.2947 29.7386 83.2823 29.8737C83.2412 29.9867 83.2254 30.1074 83.2362 30.2272L83.1728 30.7133L83.1421 30.7421L83.1536 30.7825C83.0443 30.9687 83.0535 31.1672 83.0626 31.3655V31.3657C83.0665 31.4496 83.0704 31.5335 83.0652 31.6164C82.9469 31.8078 82.9697 32.0092 82.9924 32.2105C82.9996 32.2738 83.0067 32.3373 83.0095 32.4003L83.0383 32.9171C83.0826 33.3008 83.0736 33.6888 83.0114 34.07C82.8522 34.4108 82.8805 34.7625 82.9088 35.1139C82.9265 35.335 82.9443 35.5561 82.9154 35.7742C82.9006 35.7844 82.8903 35.7997 82.8864 35.8172C82.8825 35.8346 82.8853 35.8529 82.8942 35.8684C82.6771 36.2834 82.7712 36.7003 82.8942 37.1153C82.9029 37.3323 82.8984 37.5502 82.8938 37.7681C82.8833 38.2757 82.8728 38.7834 83.0287 39.2807C83.075 39.3909 83.0593 39.509 83.0436 39.6273C83.0214 39.7938 82.9992 39.9609 83.1498 40.1069C83.1437 40.1086 83.1382 40.1116 83.1334 40.1156C83.1286 40.1196 83.1247 40.1246 83.1219 40.1302C83.1192 40.1359 83.1177 40.142 83.1176 40.1483C83.1174 40.1545 83.1185 40.1607 83.1209 40.1665C82.9442 40.2241 82.9884 40.3337 83.0556 40.447V41.0907L83.1728 42.9083C83.1728 43.0796 83.1716 43.2513 83.1704 43.4233V43.4235C83.1647 44.2161 83.1591 45.0148 83.2727 45.8058C83.2698 46.3707 83.3627 46.932 83.5475 47.4658C83.5302 47.5754 83.5379 47.6772 83.657 47.731C84.0836 47.8775 84.5212 47.8709 84.9582 47.8643C85.0369 47.8631 85.1155 47.8619 85.1941 47.8616C85.8066 47.9902 86.4353 48.0232 87.0579 47.9596H88.9639C88.9855 47.9294 89.0054 47.898 89.0234 47.8655L89.646 47.8424H89.9111C90.0728 47.8349 90.2351 47.8359 90.3973 47.8369C90.7748 47.8392 91.1523 47.8416 91.5232 47.7368C91.6766 47.7094 91.8217 47.6472 91.9472 47.5549C92.0728 47.4626 92.1755 47.3427 92.2475 47.2045C92.5133 46.7966 92.2934 46.5485 92.0738 46.3008C91.9965 46.2136 91.9193 46.1265 91.8632 46.0325C91.8725 45.9413 91.9356 45.8596 91.9982 45.7787C92.1176 45.6243 92.2349 45.4725 91.9728 45.262Z" fill="url(#paint3_linear_310_9)"/>
<path d="M57.0632 19.3695C57.0017 19.4793 56.9755 19.6054 56.9882 19.7307C55.6125 20.1918 54.2714 20.6722 52.9783 21.1736L57.2476 2.02898L56.1909 0.576415H64.1089L63.0675 2.00208L66.4299 17.083C64.8992 17.4276 63.4076 17.7997 61.955 18.1993L61.3613 16.8986V16.0666C61.3657 16.0326 61.3699 15.9996 61.374 15.9672C61.3825 15.9007 61.3907 15.8366 61.3997 15.7707L61.5496 15.6823C61.633 15.5927 61.6899 15.4855 61.7473 15.3774C61.7969 15.2839 61.8469 15.1897 61.9147 15.1059C61.9827 14.971 62.0872 14.8578 62.2163 14.7793C62.272 14.7419 62.3241 14.6994 62.3719 14.6525C62.4181 14.6198 62.4622 14.5852 62.5045 14.5506L62.6967 14.4891L62.8139 14.297C63.0867 14.1779 63.1732 13.8858 63.006 13.7206C62.8503 13.5661 62.9032 13.4565 62.9551 13.349C62.9807 13.296 63.006 13.2435 63.006 13.1865C62.8806 13.0169 62.853 12.8197 62.8255 12.6224C62.8146 12.5447 62.8038 12.467 62.787 12.391L62.7858 12.387C62.7536 12.2731 62.722 12.1618 62.5948 12.1162C62.5873 12.0913 62.5834 12.0654 62.5833 12.0394C62.5371 11.9628 62.4678 11.9631 62.3983 11.9635C62.358 11.9637 62.3176 11.9639 62.2816 11.9491H62.1279C61.9089 11.9222 61.7437 11.8338 61.7437 11.5379L61.6553 11.5168C61.6447 11.4476 61.6346 11.3784 61.6245 11.3093C61.6144 11.2401 61.6044 11.1709 61.5938 11.1017C61.6015 11.0249 61.6092 10.95 61.6226 10.8731C61.6037 10.8251 61.6041 10.7727 61.6044 10.7207C61.605 10.6353 61.6056 10.5509 61.5208 10.4888C61.4515 10.4444 61.4033 10.3737 61.3551 10.303C61.2763 10.1874 61.1975 10.0719 61.027 10.0719C60.9638 10.0426 60.8933 10.0433 60.8227 10.044C60.7173 10.045 60.6119 10.046 60.5313 9.947C60.1039 9.84904 59.6598 9.84904 59.2324 9.947C59.2127 9.94666 59.1925 9.94494 59.1722 9.94322C59.0779 9.9352 58.9831 9.92714 58.9404 10.0584C58.4556 9.97525 58.1036 10.2165 57.7516 10.4576C57.6321 10.5395 57.5126 10.6214 57.3879 10.6906C57.2628 10.7197 57.1971 10.8105 57.1309 10.9021C57.1097 10.9314 57.0884 10.9609 57.0651 10.9884C56.9288 11.0936 56.8277 11.2376 56.775 11.4015C56.62 11.5087 56.5381 11.6661 56.4563 11.8235C56.4193 11.8944 56.3824 11.9654 56.3388 12.0317C56.3154 12.071 56.3084 12.118 56.3196 12.1624C56.3599 12.2661 56.4176 12.3699 56.5521 12.3699L56.3599 12.6561L56.1678 12.9693L56.1563 13.5861V13.5995C56.1142 13.6179 56.0898 13.5773 56.0652 13.5365C56.0359 13.4877 56.0064 13.4388 55.9468 13.49V13.7975C55.9694 13.8088 55.9949 13.8128 56.0198 13.809L56.7692 14.7428C56.8186 14.7956 56.8666 14.8503 56.9145 14.9049C57.1644 15.1895 57.4115 15.471 57.8452 15.471C57.9092 15.5763 58.0123 15.6068 58.1184 15.6381C58.1556 15.6491 58.1931 15.6602 58.2294 15.6746C58.243 15.6804 58.2568 15.6861 58.2708 15.692C58.4678 15.7737 58.6998 15.87 58.6137 16.1857C58.168 16.5489 57.7549 16.9331 57.58 17.5096C57.5503 17.5572 57.5368 17.6131 57.5416 17.669C57.5153 17.7725 57.4903 17.8761 57.4655 17.9786L57.4654 17.9791L57.4474 18.0533C57.2197 18.3775 57.1612 18.7525 57.1026 19.1278C57.09 19.2085 57.0774 19.2892 57.0632 19.3695Z" fill="url(#paint4_linear_310_9)"/>
<path d="M68.065 24.5169C66.4664 24.8723 64.937 25.2662 63.4652 25.687C63.4652 26.1267 63.4581 26.5665 63.4509 27.0063C63.4469 27.2505 63.443 27.4948 63.4402 27.739C63.48 27.829 63.4912 27.929 63.4723 28.0256C63.4534 28.1222 63.4053 28.2106 63.3346 28.2789C63.3395 28.3326 63.332 28.3867 63.3126 28.437C63.2933 28.4873 63.2627 28.5325 63.2231 28.5691C63.2335 28.7034 63.1731 28.8205 63.1127 28.9378C63.0392 29.0804 62.9657 29.2232 63.0194 29.3972L63.0079 29.7104C62.8254 30.1158 62.86 30.5385 62.9061 30.9631C63.1003 31.6829 63.0519 32.411 63.0035 33.1392C62.9949 33.2682 62.9863 33.3973 62.9791 33.5262C62.9791 33.5504 62.9683 33.5746 62.9576 33.5986C62.9462 33.6241 62.9348 33.6494 62.9368 33.6742C62.9876 34.3255 62.9025 34.9669 62.8173 35.6081C62.7576 36.0582 62.6978 36.5083 62.6851 36.9617C62.6709 36.9908 62.6663 37.0245 62.6617 37.0583C62.6544 37.1114 62.6472 37.1647 62.6025 37.1999C62.6729 37.4222 62.6957 37.6568 62.6695 37.8885C62.6434 38.1202 62.5689 38.3438 62.4507 38.5449C62.4193 38.5648 62.395 38.594 62.3812 38.6285C62.3674 38.663 62.3649 38.701 62.3739 38.737C62.3252 38.8224 62.3293 38.92 62.3333 39.0165C62.3384 39.1371 62.3433 39.2562 62.2451 39.348C62.2447 39.3512 62.2445 39.3544 62.2444 39.3576C62.2442 39.3634 62.2444 39.3692 62.2451 39.3749C62.2528 39.4552 62.2317 39.5355 62.1856 39.6016C62.174 39.6343 62.1625 39.667 62.1529 39.6996C62.16 39.7386 62.1568 39.7788 62.1436 39.8162C62.1305 39.8536 62.1079 39.8869 62.078 39.9129C62.0382 39.9488 62.0063 39.9927 61.9845 40.0417C61.9626 40.0906 61.9513 40.1436 61.9512 40.1973C61.7995 40.4221 61.8108 40.6692 61.8221 40.9165C61.8308 41.1046 61.8394 41.2927 61.7763 41.4711H61.7513C61.7624 41.4779 61.7706 41.4885 61.7745 41.5008C61.7783 41.5132 61.7776 41.5265 61.7725 41.5384V41.5518C61.7882 41.5494 61.8043 41.5511 61.8191 41.5568C61.834 41.5625 61.847 41.5721 61.857 41.5845C61.857 41.631 61.8634 41.6774 61.8699 41.7245C61.8728 41.7456 61.8758 41.7668 61.8781 41.7882C61.8829 41.8726 61.8886 41.9571 61.8943 42.0416C61.9237 42.4749 61.9532 42.9098 61.8455 43.3407C61.8167 43.3509 61.7896 43.3651 61.7648 43.3829C61.1692 43.8402 61.0904 44.1015 61.3478 44.7548C61.3617 44.7643 61.3775 44.7706 61.3941 44.7733C61.4108 44.776 61.4278 44.7749 61.4439 44.7702L62.1414 45.1237C62.4895 45.1856 62.8184 45.3277 63.1021 45.5387C63.1086 45.5678 63.1131 45.5974 63.1155 45.6271L63.4172 45.7405C63.684 45.7094 63.813 45.8775 63.9428 46.0465C63.9738 46.0869 64.0048 46.1273 64.0378 46.1651C64.2492 46.3357 64.15 46.4583 64.0512 46.5803C64.0009 46.6423 63.9508 46.7042 63.9417 46.7722C63.9867 46.8462 64.0473 46.915 64.1078 46.9837C64.2801 47.1792 64.4522 47.3746 64.2645 47.6887H75.1818L72.8204 45.8308L68.065 24.5169Z" fill="url(#paint5_linear_310_9)"/>
<path d="M56.9844 44.2668C56.9555 45.042 56.9825 45.8183 57.0651 46.5897L57.0555 46.5839C57.0606 46.9517 57.1136 47.3173 57.213 47.6714H45.1083L47.4832 45.825L50.9032 30.4789C52.6267 29.6393 54.4981 28.8073 56.5233 28.0157C56.4836 28.3783 56.4194 28.7378 56.3311 29.0917C56.2576 29.2871 56.2332 29.4975 56.26 29.7046C56.2645 29.7198 56.2672 29.7382 56.27 29.7564C56.2756 29.7935 56.2811 29.8301 56.3004 29.8391C56.8537 30.0889 56.9633 30.3002 56.8653 30.9535C56.8416 31.1396 56.9064 31.306 56.9712 31.4725C57.0115 31.5758 57.0517 31.6792 57.0709 31.7874C57.049 31.8314 57.024 31.8738 56.9959 31.9142L56.9932 31.9262C56.9306 32.1988 56.8687 32.469 57.0997 32.7019C57.2383 32.967 57.1809 33.2255 57.1234 33.484C57.0989 33.5946 57.0743 33.7052 57.0651 33.8163C57.0322 33.9126 57.0217 34.0151 57.0344 34.1161C57.0171 34.241 56.9998 34.3716 56.9844 34.5004L56.9575 34.5253L56.9671 34.558C56.8808 34.7064 56.8882 34.8651 56.8956 35.0244C56.8988 35.092 56.9019 35.1596 56.8979 35.2266C56.8029 35.3802 56.8213 35.5415 56.8398 35.703C56.8456 35.7537 56.8514 35.8044 56.8537 35.8549L56.8768 36.27C56.9105 36.5764 56.9027 36.8859 56.8537 37.1903C56.7268 37.463 56.7494 37.7436 56.772 38.0242C56.7864 38.2023 56.8008 38.3804 56.7769 38.5564C56.7653 38.5646 56.7571 38.5767 56.7539 38.5906C56.7507 38.6044 56.7527 38.6189 56.7596 38.6313C56.5847 38.9637 56.6616 39.2981 56.7596 39.6305C56.7672 39.8067 56.7635 39.983 56.7599 40.1593C56.7515 40.5594 56.7431 40.9596 56.8672 41.3597C56.9089 41.4504 56.8956 41.549 56.8825 41.6473C56.8647 41.7801 56.847 41.9121 56.9652 42.0226C56.9603 42.0236 56.9557 42.0256 56.9518 42.0286C56.9478 42.0317 56.9446 42.0355 56.9424 42.04C56.9402 42.0444 56.939 42.0493 56.9389 42.0543C56.9389 42.0593 56.94 42.0642 56.9421 42.0687C56.7999 42.1148 56.8345 42.2032 56.8902 42.2935V42.8103C56.9223 43.2971 56.9537 43.7826 56.9844 44.2668Z" fill="url(#paint6_linear_310_9)"/>
<defs>
<linearGradient id="paint0_linear_310_9" x1="0" y1="24" x2="150.69" y2="24" gradientUnits="userSpaceOnUse">
<stop stop-color="#6FACCF"/>
<stop offset="1" stop-color="#3EBCCD"/>
</linearGradient>
<linearGradient id="paint1_linear_310_9" x1="0" y1="24" x2="150.69" y2="24" gradientUnits="userSpaceOnUse">
<stop stop-color="#6FACCF"/>
<stop offset="1" stop-color="#3EBCCD"/>
</linearGradient>
<linearGradient id="paint2_linear_310_9" x1="0" y1="24" x2="150.69" y2="24" gradientUnits="userSpaceOnUse">
<stop stop-color="#6FACCF"/>
<stop offset="1" stop-color="#3EBCCD"/>
</linearGradient>
<linearGradient id="paint3_linear_310_9" x1="0" y1="24" x2="150.69" y2="24" gradientUnits="userSpaceOnUse">
<stop stop-color="#6FACCF"/>
<stop offset="1" stop-color="#3EBCCD"/>
</linearGradient>
<linearGradient id="paint4_linear_310_9" x1="0" y1="24" x2="150.69" y2="24" gradientUnits="userSpaceOnUse">
<stop stop-color="#6FACCF"/>
<stop offset="1" stop-color="#3EBCCD"/>
</linearGradient>
<linearGradient id="paint5_linear_310_9" x1="0" y1="24" x2="150.69" y2="24" gradientUnits="userSpaceOnUse">
<stop stop-color="#6FACCF"/>
<stop offset="1" stop-color="#3EBCCD"/>
</linearGradient>
<linearGradient id="paint6_linear_310_9" x1="0" y1="24" x2="150.69" y2="24" gradientUnits="userSpaceOnUse">
<stop stop-color="#6FACCF"/>
<stop offset="1" stop-color="#3EBCCD"/>
</linearGradient>
</defs>
</svg>
